<?xml version="1.0" encoding="utf-8"?>
<!-- Generator: Adobe Illustrator 23.0.3, SVG Export Plug-In . SVG Version: 6.00 Build 0)  -->
<svg version="1.1" id="Layer_1" xmlns="http://www.w3.org/2000/svg" xmlns:xlink="http://www.w3.org/1999/xlink" x="0px" y="0px"
	 width="48px" height="48px" viewBox="0 0 48 48" style="enable-background:new 0 0 48 48;" xml:space="preserve">
<style type="text/css">
	.st0{fill:#9330B2;}
	.st1{fill:#FFFFFF;}
</style>
<g>
	<path class="st0" d="M48,24c0,13.3-10.7,24-24,24S0,37.3,0,24S10.7,0,24,0S48,10.7,48,24z"/>
	<path class="st1" d="M27.2,8.2h-6.4c-6.4,0-11.7,5.2-11.7,11.7v4.5c0,3.1,1.2,6,3.4,8.2v5.9c0,0.6,0.3,1.1,0.8,1.4
		c0.3,0.1,0.5,0.2,0.8,0.2c0.3,0,0.6-0.1,0.8-0.2l6.7-3.8h5.6c6.4,0,11.7-5.2,11.7-11.7v-4.5C38.9,13.4,33.6,8.2,27.2,8.2z
		 M36.4,24.5c0,4.9-4,8.9-8.9,8.9h-5.2l-8.2,5v-7.8c-1.5-1.6-2.5-3.8-2.5-6.1v-4.8c0-4.9,4-8.9,8.9-8.9h7c4.9,0,8.9,4,8.9,8.9V24.5z
		"/>
	<path class="st1" d="M22.3,15.4c0,0-0.1-0.1-0.1-0.1c-0.1-0.2,0-0.5,0.2-0.6c2.3-1.1,5.2-0.5,7.3,1.5c2,2,2.6,5,1.5,7.3
		c-0.1,0.2-0.4,0.3-0.6,0.2c-0.2-0.1-0.3-0.4-0.2-0.6c1-1.9,0.4-4.5-1.4-6.3c-1.8-1.8-4.3-2.3-6.3-1.4
		C22.6,15.6,22.4,15.5,22.3,15.4z"/>
	<path class="st1" d="M23.3,17.3c0,0-0.1-0.1-0.1-0.1c-0.1-0.2,0-0.5,0.2-0.6c1.6-0.7,3.5-0.3,4.9,1.1c1.4,1.4,1.8,3.3,1.1,4.9
		c-0.1,0.2-0.4,0.3-0.6,0.2c-0.2-0.1-0.3-0.4-0.2-0.6c0.6-1.2,0.2-2.8-0.9-3.9s-2.7-1.5-3.9-0.9C23.6,17.4,23.4,17.4,23.3,17.3z"/>
	<path class="st1" d="M24.2,19.2c0,0-0.1-0.1-0.1-0.1c-0.1-0.2,0-0.5,0.2-0.5c0.8-0.3,1.8-0.1,2.5,0.6s0.9,1.7,0.6,2.5
		c-0.1,0.2-0.3,0.3-0.5,0.2c-0.2-0.1-0.3-0.3-0.2-0.5c0.2-0.5,0-1.1-0.4-1.6c-0.4-0.4-1.1-0.6-1.6-0.4
		C24.5,19.3,24.3,19.3,24.2,19.2z"/>
	<path class="st1" d="M21.2,18.4l-3-3c-0.4-0.4-0.9-0.5-1.2-0.2l-0.3,0.3c-1.4,1.4-1.7,3.4-0.5,4.8c1.4,1.7,3,3.4,4.5,4.9
		c1.4,1.5,3.2,3.1,4.9,4.5c1.4,1.1,3.4,0.9,4.8-0.5l0.3-0.3c0.3-0.3,0.2-0.8-0.2-1.2l-3-3c-0.7-0.7-1.2-0.6-1.4-0.3
		c0,0-0.4,0.4-0.4,0.5v0c-0.3,0.3-0.9,0.3-1.5-0.1c-0.6-0.3-1.1-0.9-1.6-1.4c-0.5-0.5-1-1.1-1.4-1.6c-0.4-0.6-0.3-1.3-0.1-1.5h0
		c0.1-0.1,0.5-0.4,0.5-0.4C21.8,19.6,21.9,19.1,21.2,18.4z"/>
</g>
</svg>
